REM DIRINDEX 1\5,1\2\6,1\2\7,1\3\8,1\3\9,1\4\10,1\4\11,1\4\12
REM DIRNAME cjc026,folder01,folder02,folder03,folder04,folder05,folder06,folder07,folder08,folder09,folder10,folder11
TITLE ""
FILE "EJE_DB3000_5th_3B_22.mp3" MP3
  TRACK 01 AUDIO
    TITLE "0:"
    INDEX 01 00:00:00
  TRACK 02 AUDIO
    TITLE "10:cjc026_09009"
    INDEX 01 00:00:08
  TRACK 03 AUDIO
    TITLE "0:"
    INDEX 01 00:01:24
  TRACK 04 AUDIO
    TITLE "11:cjc026_09010"
    INDEX 01 00:01:65
  TRACK 05 AUDIO
    TITLE "0:"
    INDEX 01 00:03:47
  TRACK 06 AUDIO
    TITLE "12:cjc026_09011"
    INDEX 01 00:04:07
  TRACK 07 AUDIO
    TITLE "0:"
    INDEX 01 00:05:24
  TRACK 08 AUDIO
    TITLE "10:cjc026_09012"
    INDEX 01 00:05:65
  TRACK 09 AUDIO
    TITLE "0:"
    INDEX 01 00:07:20
  TRACK 10 AUDIO
    TITLE "11:cjc026_09013"
    INDEX 01 00:07:58
  TRACK 11 AUDIO
    TITLE "0:"
    INDEX 01 00:08:69
  TRACK 12 AUDIO
    TITLE "12:cjc026_09014"
    INDEX 01 00:09:32
  TRACK 13 AUDIO
    TITLE "0:"
    INDEX 01 00:10:62
  TRACK 14 AUDIO
    TITLE "10:cjc026_09015"
    INDEX 01 00:11:25
  TRACK 15 AUDIO
    TITLE "0:"
    INDEX 01 00:12:58
  TRACK 16 AUDIO
    TITLE "11:cjc026_09016"
    INDEX 01 00:13:18
  TRACK 17 AUDIO
    TITLE "0:"
    INDEX 01 00:14:40
  TRACK 18 AUDIO
    TITLE "12:cjc026_09017"
    INDEX 01 00:15:00
  TRACK 19 AUDIO
    TITLE "0:"
    INDEX 01 00:16:33
  TRACK 20 AUDIO
    TITLE "10:cjc026_09018"
    INDEX 01 00:16:69
  TRACK 21 AUDIO
    TITLE "0:"
    INDEX 01 00:18:27
  TRACK 22 AUDIO
    TITLE "11:cjc026_09019"
    INDEX 01 00:18:62
  TRACK 23 AUDIO
    TITLE "0:"
    INDEX 01 00:20:17
  TRACK 24 AUDIO
    TITLE "12:cjc026_09020"
    INDEX 01 00:20:52
  TRACK 25 AUDIO
    TITLE "0:"
    INDEX 01 00:22:07
  TRACK 26 AUDIO
    TITLE "10:cjc026_09021"
    INDEX 01 00:22:45
  TRACK 27 AUDIO
    TITLE "0:"
    INDEX 01 00:25:71
  TRACK 28 AUDIO
    TITLE "11:cjc026_09022"
    INDEX 01 00:26:34
  TRACK 29 AUDIO
    TITLE "0:"
    INDEX 01 00:28:33
  TRACK 30 AUDIO
    TITLE "12:cjc026_09023"
    INDEX 01 00:28:68
  TRACK 31 AUDIO
    TITLE "0:"
    INDEX 01 00:32:21
  TRACK 32 AUDIO
    TITLE "10:cjc026_09024"
    INDEX 01 00:32:57
  TRACK 33 AUDIO
    TITLE "0:"
    INDEX 01 00:34:15
  TRACK 34 AUDIO
    TITLE "11:cjc026_09025"
    INDEX 01 00:34:52
  TRACK 35 AUDIO
    TITLE "0:"
    INDEX 01 00:37:08
  TRACK 36 AUDIO
    TITLE "12:cjc026_09026"
    INDEX 01 00:37:43
  TRACK 37 AUDIO
    TITLE "0:"
    INDEX 01 00:39:04
  TRACK 38 AUDIO
    TITLE "10:cjc026_09027"
    INDEX 01 00:39:42
  TRACK 39 AUDIO
    TITLE "0:"
    INDEX 01 00:40:69
  TRACK 40 AUDIO
    TITLE "11:cjc026_09028"
    INDEX 01 00:41:32
  TRACK 41 AUDIO
    TITLE "0:"
    INDEX 01 00:42:65
  TRACK 42 AUDIO
    TITLE "12:cjc026_09029"
    INDEX 01 00:43:28
  TRACK 43 AUDIO
    TITLE "0:"
    INDEX 01 00:44:53
  TRACK 44 AUDIO
    TITLE "10:cjc026_09030"
    INDEX 01 00:45:18
  TRACK 45 AUDIO
    TITLE "0:"
    INDEX 01 00:46:46
  TRACK 46 AUDIO
    TITLE "11:cjc026_09031"
    INDEX 01 00:47:12
  TRACK 47 AUDIO
    TITLE "0:"
    INDEX 01 00:48:58
  TRACK 48 AUDIO
    TITLE "12:cjc026_09032"
    INDEX 01 00:49:21
  TRACK 49 AUDIO
    TITLE "0:"
    INDEX 01 00:50:51
  TRACK 50 AUDIO
    TITLE "10:cjc026_09033"
    INDEX 01 00:51:14
  TRACK 51 AUDIO
    TITLE "0:"
    INDEX 01 00:52:44
  TRACK 52 AUDIO
    TITLE "11:cjc026_09034"
    INDEX 01 00:53:04
  TRACK 53 AUDIO
    TITLE "0:"
    INDEX 01 00:54:54
  TRACK 54 AUDIO
    TITLE "12:cjc026_09035"
    INDEX 01 00:55:14
  TRACK 55 AUDIO
    TITLE "0:"
    INDEX 01 00:56:47
  TRACK 56 AUDIO
    TITLE "10:cjc026_09036"
    INDEX 01 00:57:07
  TRACK 57 AUDIO
    TITLE "0:"
    INDEX 01 00:58:32
  TRACK 58 AUDIO
    TITLE "11:cjc026_09037"
    INDEX 01 00:58:69
  TRACK 59 AUDIO
    TITLE "0:"
    INDEX 01 01:01:23
  TRACK 60 AUDIO
    TITLE "12:cjc026_09038"
    INDEX 01 01:01:58
  TRACK 61 AUDIO
    TITLE "0:"
    INDEX 01 01:03:08
  TRACK 62 AUDIO
    TITLE "10:cjc026_09039"
    INDEX 01 01:03:45
  TRACK 63 AUDIO
    TITLE "0:"
    INDEX 01 01:05:17
  TRACK 64 AUDIO
    TITLE "11:cjc026_09040"
    INDEX 01 01:05:55
  TRACK 65 AUDIO
    TITLE "0:"
    INDEX 01 01:06:74
  TRACK 66 AUDIO
    TITLE "12:cjc026_09041"
    INDEX 01 01:07:34
  TRACK 67 AUDIO
    TITLE "0:"
    INDEX 01 01:09:09
  TRACK 68 AUDIO
    TITLE "10:cjc026_09042"
    INDEX 01 01:09:46
  TRACK 69 AUDIO
    TITLE "0:"
    INDEX 01 01:10:60
  TRACK 70 AUDIO
    TITLE "11:cjc026_09043"
    INDEX 01 01:11:29
  TRACK 71 AUDIO
    TITLE "0:"
    INDEX 01 01:13:08
  TRACK 72 AUDIO
    TITLE "12:cjc026_09044"
    INDEX 01 01:13:46
  TRACK 73 AUDIO
    TITLE "0:"
    INDEX 01 01:14:57
  TRACK 74 AUDIO
    TITLE "10:cjc026_09045"
    INDEX 01 01:15:28
  TRACK 75 AUDIO
    TITLE "0:"
    INDEX 01 01:18:19
  TRACK 76 AUDIO
    TITLE "11:cjc026_09046"
    INDEX 01 01:18:57
  TRACK 77 AUDIO
    TITLE "0:"
    INDEX 01 01:20:66
  TRACK 78 AUDIO
    TITLE "12:cjc026_09047"
    INDEX 01 01:21:27
  TRACK 79 AUDIO
    TITLE "0:"
    INDEX 01 01:24:20
